<mxfile host="65bd71144e">
    <diagram id="zFvUNfoWo1IlGdHMwN_A" name="Page-1">
        <mxGraphModel dx="1180" dy="705" grid="1" gridSize="10" guides="1" tooltips="1" connect="1" arrows="1" fold="1" page="1" pageScale="1" pageWidth="850" pageHeight="1100" math="0" shadow="0">
            <root>
                <mxCell id="0"/>
                <mxCell id="1" parent="0"/>
                <mxCell id="2" value="" style="rounded=0;whiteSpace=wrap;html=1;" vertex="1" parent="1">
                    <mxGeometry x="80" y="20" width="730" height="510" as="geometry"/>
                </mxCell>
                <mxCell id="4" value="&lt;&lt;Docker Hub&gt;&gt;" style="swimlane;" vertex="1" parent="1">
                    <mxGeometry x="450" y="70" width="310" height="110" as="geometry">
                        <mxRectangle x="440" y="60" width="100" height="40" as="alternateBounds"/>
                    </mxGeometry>
                </mxCell>
                <mxCell id="8" value="&amp;lt;&amp;lt;Docker image&amp;gt;&amp;gt;&lt;br&gt;&lt;br&gt;&lt;b&gt;minitwit-joel-web&lt;/b&gt;" style="html=1;align=center;verticalAlign=middle;dashed=0;whiteSpace=wrap;" vertex="1" parent="4">
                    <mxGeometry x="160" y="40" width="115" height="60" as="geometry"/>
                </mxCell>
                <mxCell id="6" value="&amp;lt;&amp;lt;Docker image&amp;gt;&amp;gt;&lt;br&gt;&lt;br&gt;&lt;b&gt;minitwit-joel-api&lt;/b&gt;" style="html=1;align=center;verticalAlign=middle;dashed=0;whiteSpace=wrap;" vertex="1" parent="4">
                    <mxGeometry x="30" y="40" width="115" height="60" as="geometry"/>
                </mxCell>
                <mxCell id="36" style="edgeStyle=none;html=1;entryX=0.5;entryY=1;entryDx=0;entryDy=0;" edge="1" parent="1" source="5" target="4">
                    <mxGeometry relative="1" as="geometry"/>
                </mxCell>
                <mxCell id="5" value="&lt;&lt;VM&gt;&gt;" style="swimlane;" vertex="1" parent="1">
                    <mxGeometry x="440" y="290" width="330" height="220" as="geometry"/>
                </mxCell>
                <mxCell id="18" value="«docker swarm service»&lt;b&gt;&lt;br&gt;&lt;/b&gt;&lt;div&gt;&lt;b&gt;mintwit-web&lt;/b&gt;&lt;/div&gt;&lt;div&gt;&lt;b&gt;(&lt;/b&gt;image: minitwit-joel-web&lt;b&gt;)&lt;/b&gt;&lt;/div&gt;" style="html=1;dropTarget=0;whiteSpace=wrap;" vertex="1" parent="5">
                    <mxGeometry x="170" y="40" width="150" height="100" as="geometry"/>
                </mxCell>
                <mxCell id="19" value="" style="shape=module;jettyWidth=8;jettyHeight=4;" vertex="1" parent="18">
                    <mxGeometry x="1" width="20" height="20" relative="1" as="geometry">
                        <mxPoint x="-27" y="7" as="offset"/>
                    </mxGeometry>
                </mxCell>
                <mxCell id="38" value="&amp;lt;&amp;lt;enviroment variables&amp;gt;&amp;gt;&lt;br&gt;&lt;br&gt;&lt;b&gt;.secrets-production&lt;/b&gt;" style="html=1;align=center;verticalAlign=middle;dashed=0;whiteSpace=wrap;" vertex="1" parent="5">
                    <mxGeometry x="80" y="150" width="180" height="60" as="geometry"/>
                </mxCell>
                <mxCell id="28" style="edgeStyle=none;html=1;entryX=0.5;entryY=0;entryDx=0;entryDy=0;" edge="1" parent="1" target="13">
                    <mxGeometry relative="1" as="geometry">
                        <mxPoint x="230" y="140" as="sourcePoint"/>
                    </mxGeometry>
                </mxCell>
                <mxCell id="12" value="Actor" style="shape=umlActor;verticalLabelPosition=bottom;verticalAlign=top;html=1;outlineConnect=0;" vertex="1" parent="1">
                    <mxGeometry x="215" y="50" width="30" height="60" as="geometry"/>
                </mxCell>
                <mxCell id="13" value="&lt;&lt;Github&gt;&gt;" style="swimlane;" vertex="1" parent="1">
                    <mxGeometry x="130" y="200" width="200" height="240" as="geometry"/>
                </mxCell>
                <mxCell id="33" style="edgeStyle=none;html=1;exitX=1;exitY=0.75;exitDx=0;exitDy=0;" edge="1" parent="13" source="22">
                    <mxGeometry relative="1" as="geometry">
                        <mxPoint x="310" y="207.68965517241384" as="targetPoint"/>
                    </mxGeometry>
                </mxCell>
                <mxCell id="22" value="«Workflow»&lt;br&gt;&lt;b&gt;deploy.yaml&lt;/b&gt;" style="html=1;dropTarget=0;whiteSpace=wrap;" vertex="1" parent="13">
                    <mxGeometry x="10" y="140" width="180" height="90" as="geometry"/>
                </mxCell>
                <mxCell id="23" value="" style="shape=module;jettyWidth=8;jettyHeight=4;" vertex="1" parent="22">
                    <mxGeometry x="1" width="20" height="20" relative="1" as="geometry">
                        <mxPoint x="-27" y="7" as="offset"/>
                    </mxGeometry>
                </mxCell>
                <mxCell id="26" value="&amp;lt;&amp;lt;artifact&amp;gt;&amp;gt;&lt;br&gt;&lt;br&gt;&lt;b&gt;source code&lt;/b&gt;" style="html=1;align=center;verticalAlign=middle;dashed=0;whiteSpace=wrap;" vertex="1" parent="13">
                    <mxGeometry x="10" y="40" width="180" height="60" as="geometry"/>
                </mxCell>
                <mxCell id="16" value="«docker swarm service»&lt;b&gt;&lt;br&gt;&lt;/b&gt;&lt;div&gt;&lt;b&gt;mintwit-api&lt;/b&gt;&lt;/div&gt;&lt;div&gt;&lt;b&gt;(&lt;/b&gt;image: minitwit-joel-api&lt;b&gt;)&lt;/b&gt;&lt;/div&gt;" style="html=1;dropTarget=0;whiteSpace=wrap;" vertex="1" parent="1">
                    <mxGeometry x="450" y="330" width="150" height="100" as="geometry"/>
                </mxCell>
                <mxCell id="17" value="" style="shape=module;jettyWidth=8;jettyHeight=4;" vertex="1" parent="16">
                    <mxGeometry x="1" width="20" height="20" relative="1" as="geometry">
                        <mxPoint x="-27" y="7" as="offset"/>
                    </mxGeometry>
                </mxCell>
                <mxCell id="30" value="1. Developer tags a commit and pushes it to main" style="text;html=1;align=center;verticalAlign=middle;whiteSpace=wrap;rounded=0;" vertex="1" parent="1">
                    <mxGeometry x="245" y="151" width="115" height="30" as="geometry"/>
                </mxCell>
                <mxCell id="31" style="edgeStyle=none;html=1;entryX=0;entryY=0.5;entryDx=0;entryDy=0;exitX=1;exitY=0.5;exitDx=0;exitDy=0;" edge="1" parent="1" source="22" target="4">
                    <mxGeometry relative="1" as="geometry">
                        <Array as="points">
                            <mxPoint x="390" y="385"/>
                            <mxPoint x="390" y="125"/>
                        </Array>
                    </mxGeometry>
                </mxCell>
                <mxCell id="32" value="2. Newly generated images are pushed to Docker Hub" style="text;html=1;align=center;verticalAlign=middle;whiteSpace=wrap;rounded=0;" vertex="1" parent="1">
                    <mxGeometry x="400" y="200" width="150" height="30" as="geometry"/>
                </mxCell>
                <mxCell id="34" value="3. SSH into VM, and trigger service update for both services" style="text;html=1;align=center;verticalAlign=middle;whiteSpace=wrap;rounded=0;" vertex="1" parent="1">
                    <mxGeometry x="335" y="440" width="90" height="30" as="geometry"/>
                </mxCell>
                <mxCell id="37" value="4. Pull updated images, and start rolling update of services" style="text;html=1;align=center;verticalAlign=middle;whiteSpace=wrap;rounded=0;" vertex="1" parent="1">
                    <mxGeometry x="620" y="250" width="140" height="30" as="geometry"/>
                </mxCell>
            </root>
        </mxGraphModel>
    </diagram>
</mxfile>